<svg id="Ebene_1" data-name="Ebene 1" xmlns="http://www.w3.org/2000/svg" viewBox="0 0 1200 1200">
  <defs>
    <style>
      .cls-1 {
        fill: #fff;
      }

    </style>
  </defs>

  <rect fill="#111931" rx="8" width="1200" height="1200" />


  <g id="Generatives_Objekt" data-name="Generatives Objekt">
    <g>
      <path class="cls-1"
        d="M404.21,267.25l-47.36,249.64c-1.39,7.06-3.6,12.61-9.1,18.41-22.24,23.45-56.56,36.61-90.35,32.32-17.01-2.16-32.96-7.53-45.8-17.05-16.19-12.01-20.99-30.5-12.4-47.28l104.63-204.45c10.38-20.29,28.94-31.54,53.35-30.69,4.74.17,10.68-1.94,16.44-.23,6.23,1.85,24.1.9,30.59-.67Z" />
      <path class="cls-1"
        d="M453.97,563.76c-23.86-12.23-44.74-27.27-52.35-52.39-1.47-4.86-1-10.35.06-15.74l44-225.34,134.41-2.15-.32,239.45c-2.07,8.06-2.27,14.89-7.89,21.33-4.94,5.67-8.98,11.98-15.02,16.7-24.08,18.79-53.02,27.99-83.66,21.95l-19.23-3.79Z" />
      <path class="cls-1"
        d="M750.85,267.25c3.03,3.58,3.33,7.49,4.15,11.79l43.65,226.8c3.11,16.18-36.56,72.61-106.65,61.63-31.23-4.9-56.93-23.58-70.06-49.81-1.29-2.58,1.15-5.43-2.11-7.81l-.04-241.05,120.34-.07c3.36-3.06,7.45-.82,10.71-1.47Z" />
      <path class="cls-1"
        d="M866.95,270.29c13.13,7.1,22.38,15.24,29.13,28.43l101.99,199.35c4.45,8.7,7.7,14.9,6.78,24.92-.69,7.58-3.14,16.74-10.44,22.98-33.24,28.41-86.33,31.31-122.41,5.46l-10.9-7.81c-12.46-8.93-17.29-19.5-19.9-32.72l-45.93-232.73c-.81-4.12-3.21-7.59.36-10.93,9.94.88,20.97-1.55,30.59.84,5.94,1.47,10.12-.16,15.9-.43,8-.37,16.7,1.99,24.83,2.63Z" />
    </g>
    <path class="cls-1"
      d="M759.14,597.22c20.36-6.99,37.87-17.66,51.29-31.57,2.81-2.91,4.47-6.33,8.62-8.46,28.68,28.62,54,41.67,93.35,47.1,4.65.64,9.81-.48,14.25,2.18v305.42c1.35,9.01-5.5,24.97-17.67,25.03l-212.78,1.07-.61-175.8c-.04-11.03-11.25-18.1-21.73-20.38l-146.3.08c-11.14,1.43-23.23,8.63-23.27,20.36l-.66,175.51-211.87-.28c-9.5-.01-13.64-9.52-18.56-15.71l.04-316.38c29.7-1.12,58.77-7.69,80.01-24.21l12.7-9.87c6.96-3.18,8.47-9.53,15.52-14.96l9.23,10.31c2.39,2.67,4.71,4.19,7.16,6.3,49.02,42.33,123.99,44.34,177.25,7.56,9.62-6.64,16.12-15.19,25.62-22.6,1.81.42,2.6,2.66,4.35,4.89,37.69,40.26,101.55,55,154.06,34.41Z" />
  </g>
</svg>
