<svg id="svg1" xmlns="http://www.w3.org/2000/svg" viewBox="0 0 171 171">
  <defs>
    <style>
      .cls-2 {
        fill: #111931;
      }

    </style>
  </defs>
  <g fill="none" id="layer1">

    <path id="path1" class="cls-1"
      d="M 51.5 21.2 c 0 0.4 -0.3 0.7 -0.7 0.9 c 0 0.5 -0.2 1 -0.7 1.2 l 0 23.1 l 17.8 -17.8 c 0.4 -0.4 0.6 -0.5 0.6 -1.1 c 0 -0.5 -0.7 -0.4 -1.1 -0.6 c -0.9 -0.5 -10.8 -5.6 -10.7 -5.2 l -0.1 -0.6 h 40.9 v 0.5 c 0 0.1 -0.3 0.1 -0.6 0.2 l -10.5 5.3 c -0.4 0 -0.8 0.1 -0.8 0.4 c 0 0.5 0.2 0.6 0.5 1 l 17.9 17.9 l 0.1 -23.6 c -0.6 -0.5 -1.3 -1 -1.3 -1.6 h 58.7 v 132.1 H 29.7 V 21.2 h 21.8 Z M 79.3 85.4 l 23.9 -23.9 c 0.2 -0.2 0.1 -1.1 0.7 -1.1 l -0.1 -2.9 l -25.2 -25.2 c -1.1 -0.1 -2.3 -0.1 -3.5 0 l -24.5 24.5 c -0.2 0.2 -0.2 1 -0.7 1.1 v 2.4 l 0.6 0.3 c 0.1 0 0 0.5 0 0.7 l 24.1 24.1 c 1.6 0.6 3 1.3 4.5 -0.1 Z M 128.7 111.2 l 12 -12 c 0.1 -0.9 0 -2 0 -2.9 l -17.1 -17.1 l -1.1 -0.3 c -0.1 -0.3 -0.7 -0.6 -0.9 -0.5 c -0.2 0.1 -0.4 0.3 -0.8 0.7 c -0.8 -0.5 -2.6 0.7 -2.7 2.1 c -0.4 6.6 -0.2 13.4 -0.1 20 l 9.6 9.6 c 0.2 0.2 0.2 0.8 0.2 1 c 0 0.1 0.3 0.1 0.4 0 s 0.5 -0.3 0.6 -0.4 h 0 Z M 88.7 151.1 l 32.2 -32.2 c 0.2 -1.3 0.2 -2.3 0 -3.6 l -29.2 -29.2 c -0.3 -0.3 -0.6 -0.7 -0.9 -0.7 c -0.4 0 -0.6 0.3 -0.9 0.6 l -5.4 5.4 c -0.4 0.4 -0.8 0.7 -1.6 0.7 v 57 c 0.9 1 1 1.7 2 2.2 c 1.3 0.6 2.6 1 3.8 -0.3 h 0 Z M 75 94.2 c -1 -0.7 -1.4 -1 -2.4 -0.7 c -0.1 -0.7 -1 -0.6 -1.3 -0.8 c -0.5 -0.5 -1.2 -0.9 -1.9 -1.4 c -1.2 -0.8 -2.2 -2.2 -3.4 -3.2 l -14.1 14.1 l 0 2.8 l 22.9 22.9 l 0.1 -33.8 h 0 Z" />
    <path id="path2" class="cls-2"
      d="M 56.5 21.2 l 0.1 0.6 c -0.1 -0.4 9.8 4.7 10.7 5.2 c 0.5 0.2 1.1 0.1 1.1 0.6 c 0 0.6 -0.2 0.7 -0.6 1.1 l -17.8 17.8 l -0.1 -23.1 c 0.6 -0.2 0.7 -0.7 0.7 -1.2 c 0.4 -0.2 0.7 -0.5 0.7 -0.9 h 5 Z" />
    <path id="path3" class="cls-2"
      d="M 102.6 21.2 c 0 0.6 0.7 1.1 1.3 1.6 l -0.1 23.6 l -17.9 -17.9 c -0.3 -0.3 -0.5 -0.4 -0.5 -1 c 0 -0.4 0.4 -0.4 0.8 -0.4 l 10.5 -5.3 c 0.3 0 0.6 0 0.6 -0.2 v -0.5 h 5.2 h 0 Z" />
    <path id="path4" class="cls-2"
      d="M 79.3 85.4 c -1.4 1.4 -2.9 0.7 -4.5 0.1 l -24.1 -24.1 c 0 -0.2 0.1 -0.6 0 -0.7 l -0.6 -0.3 v -2.4 c 0.5 -0.1 0.5 -0.9 0.7 -1.1 l 24.5 -24.5 c 1.1 -0.1 2.3 -0.1 3.5 0 l 25.1 25.2 l 0.1 2.9 c -0.7 0 -0.5 0.9 -0.7 1.1 l -24 23.9 Z" />
    <path id="path5" class="cls-2"
      d="M 88.7 151.1 c -1.2 1.2 -2.5 0.8 -3.8 0.3 c -1 -0.5 -1.1 -1.2 -2 -2.2 v -57 c 0.7 0 1.1 -0.3 1.6 -0.7 l 5.4 -5.4 c 0.3 -0.3 0.5 -0.6 0.9 -0.6 c 0.4 0 0.6 0.3 0.9 0.7 l 29.2 29.2 c 0.1 1.3 0.1 2.4 0 3.6 l -32.2 32.2 h 0 Z" />
    <path id="path6" class="cls-2"
      d="M 75 94.2 l -0.1 33.8 l -22.9 -22.9 l 0 -2.8 l 14.1 -14.1 c 1.2 1 2.2 2.4 3.4 3.2 c 0.7 0.4 1.3 0.9 1.9 1.4 c 0.3 0.3 1.2 0.1 1.3 0.8 c 1 -0.3 1.4 0 2.4 0.7 h 0 Z" />
    <path id="path7" class="cls-2"
      d="M 128.7 111.2 c -0.1 0.1 -0.5 0.3 -0.6 0.4 s -0.4 0.2 -0.4 0 c 0 -0.1 0 -0.7 -0.2 -1 l -9.6 -9.6 c -0.1 -6.6 -0.3 -13.4 0.1 -20 c 0.1 -1.4 1.9 -2.6 2.7 -2.1 c 0.4 -0.4 0.6 -0.6 0.8 -0.7 c 0.3 -0.1 0.8 0.3 0.9 0.5 l 1.1 0.3 l 17.1 17.1 c 0.1 0.9 0.1 1.9 0 2.9 l -12 12 h 0 Z" />

  </g>
</svg>
