<?xml version="1.0" encoding="UTF-8"?>
<svg id="Ebene_1" data-name="Ebene 1" xmlns="http://www.w3.org/2000/svg" viewBox="0 0 600 600">
  <defs>
    <style>
      .cls-1 {
        fill: #120f2f;
      }

      .cls-2 {
        fill: #110f2f;
      }
    </style>
  </defs>
  <g id="Generatives_Objekt" data-name="Generatives Objekt">
    <g>
      <path class="cls-1" d="M175.24,67.86l-29.93,172.11c-.88,4.87-2.28,8.69-5.75,12.69-14.06,16.17-35.75,25.24-57.11,22.28-10.75-1.49-20.83-5.19-28.95-11.76-10.23-8.28-13.27-21.03-7.84-32.6L111.79,89.64c6.56-13.99,18.29-21.75,33.72-21.16,3,.11,6.75-1.34,10.39-.16,3.94,1.28,15.23.62,19.34-.46Z"/>
      <path class="cls-1" d="M206.69,272.29c-15.08-8.43-28.28-18.8-33.09-36.12-.93-3.35-.63-7.13.04-10.85l27.81-155.36,84.96-1.49-.2,165.09c-1.31,5.56-1.44,10.27-4.99,14.7-3.12,3.91-5.68,8.26-9.49,11.51-15.22,12.96-33.51,19.3-52.88,15.13l-12.16-2.61Z"/>
      <path class="cls-1" d="M394.35,67.86c1.92,2.47,2.1,5.16,2.63,8.13l27.59,156.37c1.97,11.15-23.11,50.06-67.41,42.49-19.74-3.38-35.99-16.26-44.29-34.34-.82-1.78.73-3.75-1.33-5.38l-.02-166.19,76.07-.05c2.12-2.11,4.71-.56,6.77-1.02Z"/>
      <path class="cls-2" d="M467.74,69.96c8.3,4.9,14.15,10.51,18.41,19.6l64.47,137.44c2.81,6,4.86,10.27,4.29,17.18-.44,5.23-1.98,11.54-6.6,15.85-21.01,19.59-54.57,21.58-77.37,3.76l-6.89-5.38c-7.88-6.16-10.93-13.45-12.58-22.56l-29.03-160.45c-.51-2.84-2.03-5.23.23-7.54,6.28.61,13.26-1.07,19.34.58,3.75,1.01,6.4-.11,10.05-.3,5.05-.26,10.56,1.37,15.69,1.82Z"/>
    </g>
    <path class="cls-2" d="M399.59,295.36c12.87-4.82,23.94-12.17,32.42-21.76,1.78-2.01,2.82-4.36,5.45-5.83,18.13,19.73,34.13,28.73,59.01,32.48,2.94.44,6.2-.33,9.01,1.5v210.57c.85,6.21-3.48,17.22-11.17,17.26l-134.5.74-.39-121.2c-.02-7.6-7.11-12.48-13.73-14.05l-92.48.06c-7.04.99-14.68,5.95-14.71,14.03l-.41,121.01-133.92-.2c-6,0-8.62-6.56-11.73-10.83l.03-218.13c18.77-.78,37.15-5.3,50.57-16.69l8.03-6.81c4.4-2.19,5.36-6.57,9.81-10.32l5.83,7.11c1.51,1.84,2.98,2.89,4.52,4.34,30.98,29.19,78.37,30.57,112.04,5.21,6.08-4.58,10.19-10.47,16.19-15.58,1.14.29,1.64,1.83,2.75,3.37,23.82,27.76,64.19,37.92,97.38,23.73Z"/>
  </g>
</svg>